<?xml version="1.0" encoding="utf-8"?>
<!-- Generator: Adobe Illustrator 20.1.0, SVG Export Plug-In . SVG Version: 6.00 Build 0)  -->
<svg version="1.1" id="Calque_1" xmlns="http://www.w3.org/2000/svg" xmlns:xlink="http://www.w3.org/1999/xlink" x="0px" y="0px"
	 viewBox="0 0 88.4 88.4" style="enable-background:new 0 0 88.4 88.4;" xml:space="preserve">
<style type="text/css">
	.st0{fill:#0BF997;}
	.st1{fill:#FFFFFF;}
	.st2{fill:none;stroke:#FFFFFF;stroke-width:2;stroke-miterlimit:10;}
	.st3{fill:#0BF997;stroke:#FFFFFF;stroke-width:3;stroke-miterlimit:10;}
</style>
<path class="st0" d="M63.7,85.4H24.9c-12,0-21.7-9.7-21.7-21.7V24.9c0-12,9.7-21.7,21.7-21.7h38.7c12,0,21.7,9.7,21.7,21.7v38.7
	C85.4,75.7,75.6,85.4,63.7,85.4z"/>
<g>
	<path class="st1" d="M33.7,17.5c0,0-0.2,0-0.5,0.1C33.4,17.6,33.6,17.5,33.7,17.5C33.7,17.5,33.7,17.5,33.7,17.5 M33.2,17.6
		c-1.2,0.3-3.9,1.1-3.4,1.3c0.6,0.2-0.9,1.1-1.1,2c-0.1,0.6-0.6,0.8-0.3,1.3c0.3,0.5,0.3,1.2,0.3,1.8l0.7,10.7
		c1-0.7,2.1-1.3,3.2-1.8c0.3-0.1,0.5-0.2,0.8-0.2c1.9,0,3.6,2.8,5.8,2.8c2.8,0,4.8,0.7,7.2,1.7c0.3,0.1,0.7,0.2,1.1,0.2
		c1.6,0,3.4-1.1,4.8-1.1c0.5,0,1,0.1,1.4,0.5c1.7,1.7,7.8,3.3,8.8,5.6c1,2.3,3.3,5.5,3.3,8.1c0,2.6-1.3,5.9-2.3,8.2
		c-1,2.3-8.1,2.9-9.8,4.6c-1.7,1.7-3.8,3-6.1,4c-2.4,1-4.9,1.5-7.7,1.5c-2.8,0-5.3-0.5-7.6-1.5c-2.3-1-4.2-2.3-5.9-4
		c-1.6-1.7-2.9-3.7-3.8-6c-0.6-1.5-1-3.1-1.2-4.8l0,0l0-0.4c0-0.1,0-0.2,0-0.2l-2.6-28c0-0.6,0.1-1.2,0.4-1.8c0.2-0.5,0.6-1,1-1.4
		c0.4-0.4,1-0.7,1.5-0.9C22.1,19.8,30.9,18.1,33.2,17.6 M33.7,15.5h-0.1l-0.2,0c-0.1,0-0.3,0-0.7,0.1c-0.6,0.1-1.6,0.3-2.8,0.5
		c-7.8,1.5-8.7,1.7-9.1,1.9c-0.8,0.3-1.6,0.8-2.2,1.3c-0.6,0.6-1.1,1.3-1.5,2.1c-0.4,0.8-0.5,1.7-0.5,2.6v0.1l0,0.1l2.6,28l0,0.2
		l0,0.1l0,0.4l0.1,0.6l0,0.1c0.2,1.6,0.6,3.2,1.2,4.7c1,2.5,2.4,4.7,4.2,6.6c1.8,1.9,4,3.4,6.5,4.5c2.5,1.1,5.4,1.6,8.4,1.6
		c3,0,5.9-0.5,8.5-1.6c2.6-1.1,4.9-2.6,6.8-4.4c0.4-0.4,2.4-1,3.5-1.4c3-0.9,5.8-1.8,6.7-3.9c1.1-2.6,2.5-6.1,2.5-9
		c0-2.3-1.3-4.7-2.4-6.8c-0.4-0.8-0.8-1.5-1.1-2.1c-0.9-2-3.5-3.3-6.1-4.5c-1.2-0.6-2.7-1.3-3.1-1.7c-0.5-0.5-1.4-1.1-2.8-1.1
		c-1,0-2,0.3-2.9,0.6c-0.7,0.2-1.4,0.5-1.9,0.5c-0.1,0-0.2,0-0.3-0.1c-2.3-1-4.7-1.9-8-1.9c-0.5,0-1.3-0.6-1.9-1.1
		c-1.1-0.8-2.3-1.7-3.9-1.7c-0.5,0-1.1,0.1-1.6,0.3c-0.2,0.1-0.4,0.2-0.6,0.3L30.7,24c0-0.8-0.1-1.4-0.3-2c0.1-0.2,0.1-0.3,0.2-0.5
		c0.1-0.1,0.2-0.3,0.3-0.4c0.2-0.2,0.5-0.6,0.7-1c0.6-0.2,1.3-0.4,1.9-0.6c1.5-0.3,2.2-1.1,2.1-2.3l-0.2-1.8L33.7,15.5L33.7,15.5z"
		/>
</g>
<path class="st2" d="M61,42.6c-1-2.4-2.3-4.6-4.1-6.4c-1.7-1.8-3.8-3.3-6.1-4.3c-2.4-1.1-3.3,4-6.1,4c-2.5,0-2.7,2.4-4.9,3.4
	c-1.1,0.5-6.1-6.3-2.5,0l-1.1-11.5c-4.6-6.3-4.7-6.9-5-7.5c-0.3-0.6-0.6-1.1-1-1.5c-0.4-0.4-0.9-1-1.5-0.9c-0.4,0.1-1.1,0.2-1.8,0.3
	c-0.9,0.2-0.9,0.2-1.5,0.3c-0.6,0.1-2.1,0.6-2.1,0.6c-0.4,0.4-0.8,0.5-1,1.1c-0.2,0.6-0.4,1.2-0.4,1.9l2.6,30.1c0,0.1,0,0.2,0,0.3
	l0,0.5l0,0c0.2,1.8,0.6,3.5,1.2,5.1c0.9,2.4,2.1,4.6,3.8,6.4c1.6,1.8,3.6,3.3,5.9,4.3c2.3,1.1,4.8,1.6,7.6,1.6
	c2.8,0,5.4-0.5,7.7-1.6c2.4-1.1,4.4-2.5,6.1-4.3c1.7-1.8,3.1-4,4.1-6.4c1-2.4,1.5-5.1,1.5-7.8C62.5,47.7,62,45.1,61,42.6z
	 M39.2,40.5"/>
<path class="st2" d="M64.3,42.8c-1-2.5-2.3-4.6-4.1-6.4c-1.7-1.8-3.8-3.3-6.1-4.4c-2.4-1.1-2.3,3-5,3c-2.5,0-4.1,0.6-6.3,1.6
	c-1.1,0.5-4.9,3.8-5.9,4.6l-1.9-18.8c0-0.7-0.1-1.3-0.4-1.9c-0.3-0.6-0.6-1.1-1-1.5c-0.4-0.4-1-0.8-1.5-1c-0.6-0.2-1.2,0-1.9,0
	c-0.7,0-1.9,0.3-1.9,0.3s-1.1,0.3-1.5,0.7c-0.4,0.4-0.8,1-1,1.5c-0.2,0.6-0.4,1.2-0.4,1.9l2.6,30.3c0,0.1,0,0.2,0,0.3l0,0.5l0,0
	c0.2,1.8,0.6,3.5,1.2,5.2c0.9,2.5,2.1,4.6,3.8,6.4c1.6,1.8,3.6,3.3,5.9,4.4c2.3,1.1,4.8,1.6,7.6,1.6c2.8,0,5.4-0.5,7.7-1.6
	c2.4-1.1,4.4-2.5,6.1-4.4c1.7-1.8,3.1-4,4.1-6.4c1-2.5,1.5-5.1,1.5-7.9C65.8,47.9,65.3,45.3,64.3,42.8z"/>
<g>
	<path class="st0" d="M50.4,70.5c-2.8,0-5.5-0.6-7.8-1.6c-2.3-1.1-4.3-2.6-6-4.5c-1.7-1.9-2.9-4.1-3.8-6.5c-0.5-1.5-0.9-3.1-1.1-4.8
		l0,0l-0.1-0.5L29,23.3v-0.1c0-0.8,0.2-1.6,0.5-2.4c0.3-0.7,0.7-1.4,1.3-1.9c0.5-0.5,1.2-1,1.9-1.3c0.7-0.3,1.5-0.5,2.4-0.5
		c0.8,0,1.6,0.2,2.3,0.5c0.7,0.3,1.4,0.7,1.9,1.3c0.5,0.5,1,1.2,1.3,1.9c0.3,0.7,0.5,1.5,0.5,2.3l0.8,8.4c0.4-0.2,0.7-0.4,1.1-0.6
		c2.3-1.1,4.8-1.6,7.4-1.6c2.8,0,5.5,0.6,7.9,1.6c2.4,1.1,4.5,2.6,6.2,4.4c1.7,1.9,3.1,4,4.1,6.5c1,2.5,1.5,5.1,1.5,8
		c0,2.8-0.5,5.5-1.5,8c-1,2.5-2.4,4.7-4.1,6.5c-1.7,1.9-3.9,3.4-6.2,4.4C55.9,69.9,53.2,70.5,50.4,70.5z M50.7,41.2
		c-1.2,0-2.3,0.2-3.3,0.7c-1,0.5-1.9,1.1-2.7,1.9c-0.8,0.8-1.4,1.7-1.8,2.8c-0.4,1.1-0.7,2.2-0.7,3.4c0,1.2,0.2,2.4,0.7,3.4
		c0.4,1.1,1,2,1.8,2.8c0.8,0.8,1.7,1.4,2.7,1.9c1,0.5,2.1,0.7,3.3,0.7c1.2,0,2.3-0.2,3.3-0.7c1-0.5,1.9-1.1,2.7-1.9
		c0.8-0.8,1.4-1.7,1.8-2.8c0.4-1.1,0.7-2.2,0.7-3.4c0-1.2-0.2-2.3-0.7-3.4c-0.4-1.1-1-2-1.8-2.8c-0.8-0.8-1.6-1.4-2.7-1.9
		C52.9,41.4,51.8,41.2,50.7,41.2z"/>
	<path class="st1" d="M35.1,18.7c0.6,0,1.2,0.1,1.8,0.3c0.6,0.2,1,0.6,1.4,1c0.4,0.4,0.7,0.9,1,1.4c0.2,0.6,0.4,1.2,0.4,1.8l1,10.9
		c0.9-0.7,1.9-1.3,3-1.8c2.1-1,4.4-1.5,6.8-1.5c2.6,0,5.1,0.5,7.3,1.5c2.2,1,4.2,2.4,5.8,4.1c1.6,1.7,2.9,3.7,3.8,6
		c0.9,2.3,1.4,4.8,1.4,7.4c0,2.6-0.5,5.1-1.4,7.4c-0.9,2.3-2.2,4.3-3.8,6.1c-1.6,1.7-3.5,3.1-5.8,4.1c-2.2,1-4.7,1.5-7.3,1.5
		c-2.6,0-5-0.5-7.2-1.5c-2.1-1-4-2.4-5.5-4.1c-1.5-1.7-2.7-3.7-3.6-6.1c-0.6-1.6-0.9-3.2-1.1-4.9l0,0l0-0.4c0-0.1,0-0.2,0-0.2
		l-2.5-28.5c0-0.6,0.1-1.2,0.3-1.8c0.2-0.6,0.6-1,1-1.4c0.4-0.4,0.9-0.7,1.4-1C33.8,18.8,34.4,18.7,35.1,18.7 M50.7,60.2
		c1.4,0,2.7-0.3,3.9-0.8c1.2-0.5,2.2-1.3,3.1-2.2c0.9-0.9,1.6-2,2.1-3.3c0.5-1.2,0.8-2.6,0.8-4c0-1.4-0.3-2.7-0.8-4
		c-0.5-1.2-1.2-2.3-2.1-3.3c-0.9-0.9-1.9-1.7-3.1-2.2c-1.2-0.5-2.5-0.8-3.9-0.8c-1.4,0-2.7,0.3-3.9,0.8c-1.2,0.5-2.3,1.3-3.2,2.2
		c-0.9,0.9-1.6,2-2.1,3.3c-0.5,1.2-0.8,2.6-0.8,4c0,1.4,0.3,2.7,0.8,4c0.5,1.2,1.2,2.3,2.1,3.3c0.9,0.9,2,1.7,3.2,2.2
		C48,59.9,49.3,60.2,50.7,60.2 M35.1,15.7c-1,0-2,0.2-3,0.6c-0.9,0.4-1.7,0.9-2.4,1.6c-0.7,0.7-1.2,1.5-1.6,2.4
		c-0.4,0.9-0.6,1.9-0.6,3v0.1l0,0.1L30,52l0,0.2l0,0.1l0,0.4l0.1,0.9l0.1,0.1c0.2,1.6,0.6,3.2,1.1,4.7c1,2.7,2.4,5,4.1,7
		c1.8,2,4,3.6,6.5,4.8c2.5,1.2,5.4,1.8,8.4,1.8c3,0,5.9-0.6,8.5-1.8c2.6-1.2,4.8-2.8,6.7-4.8c1.9-2,3.4-4.3,4.4-7
		c1.1-2.7,1.6-5.5,1.6-8.5c0-3-0.5-5.9-1.6-8.5c-1.1-2.6-2.5-5-4.4-7c-1.9-2-4.1-3.6-6.7-4.8c-2.6-1.2-5.5-1.8-8.5-1.8
		c-2.5,0-4.9,0.5-7.2,1.4l-0.6-6.2c0-1-0.2-2-0.6-2.9c-0.4-0.9-0.9-1.7-1.6-2.4c-0.7-0.7-1.5-1.2-2.4-1.6
		C37.1,15.9,36.1,15.7,35.1,15.7L35.1,15.7z M50.7,57.2c-1,0-1.8-0.2-2.7-0.5c-0.9-0.4-1.6-0.9-2.2-1.6c-0.6-0.7-1.1-1.4-1.5-2.3
		c-0.4-0.9-0.5-1.8-0.5-2.9c0-1,0.2-1.9,0.5-2.8c0.4-0.9,0.9-1.7,1.5-2.3c0.6-0.7,1.4-1.2,2.2-1.6c0.8-0.4,1.7-0.6,2.7-0.6
		c1,0,1.8,0.2,2.6,0.5c0.9,0.4,1.6,0.9,2.2,1.5c0.6,0.7,1.1,1.4,1.5,2.3c0.4,0.9,0.5,1.8,0.5,2.8c0,1-0.2,2-0.5,2.9
		c-0.4,0.9-0.9,1.7-1.5,2.3c-0.6,0.7-1.3,1.2-2.2,1.5C52.5,57,51.6,57.2,50.7,57.2L50.7,57.2z"/>
</g>
<ellipse class="st3" cx="50.6" cy="49.9" rx="8.9" ry="9"/>
</svg>
